HIERARCHY
ROOT Hips
{
	OFFSET 0.000000 83.214638 0.000000
	CHANNELS 6 Xposition Yposition Zposition Xrotation Yrotation Zrotation
	JOINT Pelvis
	{
		OFFSET 0.000000 0.000000 0.000000
		CHANNELS 3 Xrotation Yrotation Zrotation
		JOINT LeftUpLeg
		{
			OFFSET 8.479700 -4.795502 -0.379100
			CHANNELS 3 Xrotation Yrotation Zrotation
			JOINT LeftLeg
			{
				OFFSET 0.024144 -32.555107 0.112900
				CHANNELS 3 Xrotation Yrotation Zrotation
				JOINT LeftFoot
				{
					OFFSET -0.024144 -32.638630 -3.012600
					CHANNELS 3 Xrotation Yrotation Zrotation
					JOINT LeftToeBase
					{
						OFFSET 0.970200 -13.225400 11.864200
						CHANNELS 3 Xrotation Yrotation Zrotation
						End Site
						{
							OFFSET 0.000000 12.319262 0.000000
						}
					}
					JOINT LFootTongue
					{
						OFFSET 1.142400 -1.059800 6.665200
						CHANNELS 3 Xrotation Yrotation Zrotation
						End Site
						{
							OFFSET 0.000000 12.319262 0.000000
						}
					}
				}
				JOINT LeftPantLeg
				{
					OFFSET 0.918482 -16.533964 -2.284700
					CHANNELS 3 Xrotation Yrotation Zrotation
					End Site
					{
						OFFSET 0.350399 24.744368 0.000000
					}
				}
			}
		}
		JOINT RightUpLeg
		{
			OFFSET -8.479700 -4.795502 -0.379100
			CHANNELS 3 Xrotation Yrotation Zrotation
			JOINT RightLeg
			{
				OFFSET -0.023144 -32.555092 0.112900
				CHANNELS 3 Xrotation Yrotation Zrotation
				JOINT RightFoot
				{
					OFFSET 0.023144 -32.638641 -3.012700
					CHANNELS 3 Xrotation Yrotation Zrotation
					JOINT RightToeBase
					{
						OFFSET -0.970200 -13.225400 11.864200
						CHANNELS 3 Xrotation Yrotation Zrotation
						End Site
						{
							OFFSET 0.000000 12.319244 0.000000
						}
					}
					JOINT RFootTongue
					{
						OFFSET -1.142200 -1.059800 6.665200
						CHANNELS 3 Xrotation Yrotation Zrotation
						End Site
						{
							OFFSET 0.000000 12.319243 0.000000
						}
					}
				}
				JOINT RightPantLeg
				{
					OFFSET -0.919482 -16.533978 -2.284800
					CHANNELS 3 Xrotation Yrotation Zrotation
					End Site
					{
						OFFSET -0.350400 24.744419 0.000000
					}
				}
			}
		}
	}
	JOINT Spine
	{
		OFFSET 0.000000 7.722000 1.166200
		CHANNELS 3 Xrotation Yrotation Zrotation
		JOINT Spine1
		{
			OFFSET 0.000000 12.024101 0.248800
			CHANNELS 3 Xrotation Yrotation Zrotation
			JOINT Spine2
			{
				OFFSET 0.000000 11.502998 -0.491200
				CHANNELS 3 Xrotation Yrotation Zrotation
				JOINT Neck
				{
					OFFSET 0.000000 18.430702 -3.123100
					CHANNELS 3 Xrotation Yrotation Zrotation
					JOINT Head
					{
						OFFSET 0.000000 9.051102 1.034000
						CHANNELS 3 Xrotation Yrotation Zrotation
						JOINT HairB
						{
							OFFSET 0.208400 24.786102 24.822300
							CHANNELS 3 Xrotation Yrotation Zrotation
							End Site
							{
								OFFSET 0.000000 32.263779 0.000000
							}
						}
						JOINT HairA
						{
							OFFSET -7.081100 24.428299 23.196600
							CHANNELS 3 Xrotation Yrotation Zrotation
							End Site
							{
								OFFSET 0.000000 32.263779 0.000000
							}
						}
						JOINT Hat
						{
							OFFSET 16.728800 15.048294 -15.439601
							CHANNELS 3 Xrotation Yrotation Zrotation
							End Site
							{
								OFFSET 0.000000 32.263779 0.000000
							}
						}
					}
				}
				JOINT LeftShoulder
				{
					OFFSET 6.197800 13.665199 -4.064700
					CHANNELS 3 Xrotation Yrotation Zrotation
					JOINT LeftArm
					{
						OFFSET 7.778100 -0.187103 -1.709300
						CHANNELS 3 Xrotation Yrotation Zrotation
						JOINT LeftForeArm
						{
							OFFSET 22.049376 0.000000 0.000000
							CHANNELS 3 Xrotation Yrotation Zrotation
							JOINT LeftHand
							{
								OFFSET 23.009392 0.000000 0.000000
								CHANNELS 3 Xrotation Yrotation Zrotation
								JOINT LeftHandThumb1
								{
									OFFSET 3.507191 -2.063065 3.133727
									CHANNELS 3 Xrotation Yrotation Zrotation
									JOINT LeftHandThumb2
									{
										OFFSET 3.101337 -1.790558 1.790558
										CHANNELS 3 Xrotation Yrotation Zrotation
										JOINT LeftHandThumb3
										{
											OFFSET 3.058640 -1.765907 1.765906
											CHANNELS 3 Xrotation Yrotation Zrotation
											End Site
											{
												OFFSET -0.415260 3.926476 -0.049563
											}
										}
									}
								}
								JOINT LeftHandIndex1
								{
									OFFSET 11.334419 -0.901459 3.706815
									CHANNELS 3 Xrotation Yrotation Zrotation
									JOINT LeftHandIndex2
									{
										OFFSET 3.283112 0.000000 0.000000
										CHANNELS 3 Xrotation Yrotation Zrotation
										JOINT LeftHandIndex3
										{
											OFFSET 3.323853 0.000000 0.000000
											CHANNELS 3 Xrotation Yrotation Zrotation
											End Site
											{
												OFFSET -1.135597 3.097809 0.402452
											}
										}
									}
								}
								JOINT LeftHandMiddle1
								{
									OFFSET 11.335861 0.000000 0.000000
									CHANNELS 3 Xrotation Yrotation Zrotation
									JOINT LeftHandMiddle2
									{
										OFFSET 3.410492 0.000000 0.000000
										CHANNELS 3 Xrotation Yrotation Zrotation
										JOINT LeftHandMiddle3
										{
											OFFSET 3.312172 0.000000 0.000000
											CHANNELS 3 Xrotation Yrotation Zrotation
											End Site
											{
												OFFSET -1.150200 3.080154 0.400270
											}
										}
									}
								}
								JOINT LeftHandRing1
								{
									OFFSET 11.514786 -0.013176 -3.003090
									CHANNELS 3 Xrotation Yrotation Zrotation
									JOINT LeftHandRing2
									{
										OFFSET 3.053307 0.000000 0.000000
										CHANNELS 3 Xrotation Yrotation Zrotation
										JOINT LeftHandRing3
										{
											OFFSET 3.295807 0.000000 0.000000
											CHANNELS 3 Xrotation Yrotation Zrotation
											End Site
											{
												OFFSET -1.281006 3.013344 0.375733
											}
										}
									}
								}
								JOINT LeftHandPinky1
								{
									OFFSET 10.518692 -0.960396 -5.730441
									CHANNELS 3 Xrotation Yrotation Zrotation
									JOINT LeftHandPinky2
									{
										OFFSET 2.861649 0.000000 0.000000
										CHANNELS 3 Xrotation Yrotation Zrotation
										JOINT LeftHandPinky3
										{
											OFFSET 2.863380 0.000000 0.000000
											CHANNELS 3 Xrotation Yrotation Zrotation
											End Site
											{
												OFFSET -0.843597 2.711159 0.369971
											}
										}
									}
								}
							}
							JOINT LSleeve
							{
								OFFSET 6.676277 -0.344902 -1.011730
								CHANNELS 3 Xrotation Yrotation Zrotation
								End Site
								{
									OFFSET 0.000000 14.885353 0.000000
								}
							}
						}
					}
				}
				JOINT RightShoulder
				{
					OFFSET -6.197800 13.665199 -4.064700
					CHANNELS 3 Xrotation Yrotation Zrotation
					JOINT RightArm
					{
						OFFSET -7.778100 -0.187103 -1.709300
						CHANNELS 3 Xrotation Yrotation Zrotation
						JOINT RightForeArm
						{
							OFFSET -22.049376 0.000000 0.000000
							CHANNELS 3 Xrotation Yrotation Zrotation
							JOINT RightHand
							{
								OFFSET -23.009392 0.000000 0.000000
								CHANNELS 3 Xrotation Yrotation Zrotation
								JOINT RightHandThumb1
								{
									OFFSET -3.507191 -2.063065 3.133727
									CHANNELS 3 Xrotation Yrotation Zrotation
									JOINT RightHandThumb2
									{
										OFFSET -3.101337 -1.790558 1.790558
										CHANNELS 3 Xrotation Yrotation Zrotation
										JOINT RightHandThumb3
										{
											OFFSET -3.058640 -1.765907 1.765906
											CHANNELS 3 Xrotation Yrotation Zrotation
											End Site
											{
												OFFSET 0.415260 3.926476 -0.049563
											}
										}
									}
								}
								JOINT RightHandIndex1
								{
									OFFSET -11.334419 -0.901459 3.706815
									CHANNELS 3 Xrotation Yrotation Zrotation
									JOINT RightHandIndex2
									{
										OFFSET -3.283112 0.000000 0.000000
										CHANNELS 3 Xrotation Yrotation Zrotation
										JOINT RightHandIndex3
										{
											OFFSET -3.323853 0.000000 0.000000
											CHANNELS 3 Xrotation Yrotation Zrotation
											End Site
											{
												OFFSET 1.135597 3.097809 0.402452
											}
										}
									}
								}
								JOINT RightHandMiddle1
								{
									OFFSET -11.335861 0.000000 0.000000
									CHANNELS 3 Xrotation Yrotation Zrotation
									JOINT RightHandMiddle2
									{
										OFFSET -3.410492 0.000000 0.000000
										CHANNELS 3 Xrotation Yrotation Zrotation
										JOINT RightHandMiddle3
										{
											OFFSET -3.312172 0.000000 0.000000
											CHANNELS 3 Xrotation Yrotation Zrotation
											End Site
											{
												OFFSET 1.150200 3.080154 0.400270
											}
										}
									}
								}
								JOINT RightHandRing1
								{
									OFFSET -11.514786 -0.013176 -3.003090
									CHANNELS 3 Xrotation Yrotation Zrotation
									JOINT RightHandRing2
									{
										OFFSET -3.053307 0.000000 0.000000
										CHANNELS 3 Xrotation Yrotation Zrotation
										JOINT RightHandRing3
										{
											OFFSET -3.295807 0.000000 0.000000
											CHANNELS 3 Xrotation Yrotation Zrotation
											End Site
											{
												OFFSET 1.281006 3.013344 0.375733
											}
										}
									}
								}
								JOINT RightHandPinky1
								{
									OFFSET -10.518692 -0.960396 -5.730441
									CHANNELS 3 Xrotation Yrotation Zrotation
									JOINT RightHandPinky2
									{
										OFFSET -2.861649 0.000000 0.000000
										CHANNELS 3 Xrotation Yrotation Zrotation
										JOINT RightHandPinky3
										{
											OFFSET -2.863380 0.000000 0.000000
											CHANNELS 3 Xrotation Yrotation Zrotation
											End Site
											{
												OFFSET 0.843597 2.711159 0.369971
											}
										}
									}
								}
							}
							JOINT RSleeve
							{
								OFFSET -6.676277 -0.344902 -1.011730
								CHANNELS 3 Xrotation Yrotation Zrotation
								End Site
								{
									OFFSET 0.000000 14.885353 0.000000
								}
							}
						}
					}
				}
				JOINT Backpack
				{
					OFFSET 0.000000 -2.471497 36.677502
					CHANNELS 3 Xrotation Yrotation Zrotation
					End Site
					{
						OFFSET 0.000000 20.427315 0.000000
					}
				}
				JOINT Hood
				{
					OFFSET 0.000000 18.754097 -10.431000
					CHANNELS 3 Xrotation Yrotation Zrotation
					JOINT Hood1
					{
						OFFSET 0.000000 -5.011002 -7.685901
						CHANNELS 3 Xrotation Yrotation Zrotation
						End Site
						{
							OFFSET 0.000000 9.175140 0.000000
						}
					}
				}
				JOINT LHoodieString
				{
					OFFSET 5.250500 16.397697 3.089900
					CHANNELS 3 Xrotation Yrotation Zrotation
					JOINT LHoodieString1
					{
						OFFSET 0.257700 -6.364304 3.694600
						CHANNELS 3 Xrotation Yrotation Zrotation
						JOINT LHoodieString2
						{
							OFFSET 0.000000 -9.643799 2.679100
							CHANNELS 3 Xrotation Yrotation Zrotation
							End Site
							{
								OFFSET 0.000000 10.009018 0.000000
							}
						}
					}
				}
				JOINT RHoodieString
				{
					OFFSET -5.250500 16.397697 3.089900
					CHANNELS 3 Xrotation Yrotation Zrotation
					JOINT RHoodieString1
					{
						OFFSET -0.257700 -6.364304 3.694600
						CHANNELS 3 Xrotation Yrotation Zrotation
						JOINT RHoodieString2
						{
							OFFSET 0.000000 -9.643799 2.679100
							CHANNELS 3 Xrotation Yrotation Zrotation
							End Site
							{
								OFFSET 0.000000 10.009018 0.000000
							}
						}
					}
				}
			}
			JOINT LBackpack_Strap
			{
				OFFSET 15.223200 -7.719803 -6.610900
				CHANNELS 3 Xrotation Yrotation Zrotation
				End Site
				{
					OFFSET 0.000000 16.040596 0.000000
				}
			}
			JOINT RBackpack_Strap
			{
				OFFSET -15.223000 -7.719803 -6.610900
				CHANNELS 3 Xrotation Yrotation Zrotation
				End Site
				{
					OFFSET 0.000000 16.040596 0.000000
				}
			}
		}
	}
	JOINT BoyFacialAnim_Joint
	{
		OFFSET 1.000000 -82.208099 -1.550900
		CHANNELS 3 Xrotation Yrotation Zrotation
		End Site
		{
			OFFSET 0.000000 30.012791 0.000000
		}
	}
}
MOTION
Frames: 5
Frame Time: 0.016667
0.090297 40.445999 -1.256263 0.290380 0.704444 0.728993 0.000000 0.000000 -0.000000 -11.399873 -1.363891 14.582483 105.422829 8.446201 1.703727 24.970584 -1.530319 -18.860867 -0.000000 0.000002 -0.000002 -0.000000 0.000002 -0.000002 -0.000001 -0.000002 0.000000 -9.809635 -2.395903 -14.322075 106.250375 0.547064 -0.641664 17.993090 1.445358 13.580729 -0.000000 0.000001 -0.000001 -0.000000 0.000001 -0.000001 -0.000001 -0.000001 -0.000000 1.234566 0.279016 0.029680 0.110009 0.122969 -0.090715 0.108808 0.114775 -0.092286 -0.391164 0.001168 0.119094 -1.124860 0.498129 0.197439 0.000000 -0.000000 0.000000 0.000000 -0.000000 0.000000 0.000000 -0.000000 0.000000 0.606873 -3.284650 -22.051937 11.464578 -16.354596 -52.988526 0.000001 -20.361388 0.000021 -6.670434 11.936416 -5.315172 -8.139815 -14.751882 10.508537 11.522795 33.951395 -1.839714 -0.000001 0.000001 -0.000001 -0.453782 -5.320372 -4.184398 0.332712 1.947941 -19.383537 -0.000001 -0.000000 -0.000000 -0.401508 -0.921335 -7.463548 1.036274 3.328487 -34.578027 -0.000000 0.000000 0.000000 -0.149529 2.814370 -20.128139 0.105530 1.108093 -10.879718 -0.000001 0.000001 -0.000000 -7.736875 8.986380 -14.639662 0.589056 2.562164 -25.891236 -0.000000 0.000001 -0.000004 -0.000001 0.000000 0.000001 -0.115224 9.903019 22.054927 7.750431 7.038404 56.271975 -0.000009 19.886625 0.000026 -2.747040 -6.054062 1.890077 -17.666037 6.240247 -1.517370 -4.146435 -35.461406 -9.882264 0.000001 0.000001 0.000000 13.894429 5.077778 9.899978 0.129271 -1.090745 13.516395 -0.000003 0.000002 0.000000 -0.138697 -1.041599 7.048773 0.785994 -2.591016 33.745383 0.000002 -0.000001 0.000003 0.562760 -5.309929 11.245066 0.533995 -2.167226 27.680988 -0.000001 -0.000002 0.000000 -12.301528 -16.678063 11.029482 0.315740 -1.687211 21.197741 0.000000 -0.000001 0.000002 -0.000001 -0.000000 -0.000000 -0.000000 -0.000000 -0.000000 -0.000000 -0.000000 -0.000000 -0.000000 -0.000000 -0.000000 -0.000000 -0.000000 -0.000000 -0.000000 -0.000000 -0.000000 -0.000000 0.000000 0.000000 -0.000000 -0.000000 -0.000000 -0.000000 -0.000000 -0.000000 -0.000000 0.000000 0.000000 -0.000000 0.000000 -0.000000 -0.000000 0.000000 -0.000000 0.000000 0.000000 -0.000000 
0.089886 40.446594 -1.264873 0.298097 0.623634 0.622680 0.000000 0.000000 0.000000 -11.366498 -1.413588 14.719660 105.453142 8.379001 1.601995 24.948089 -1.513791 -18.879070 -0.000003 -0.000002 0.000001 -0.000003 -0.000002 0.000002 -0.000000 0.000003 -0.000000 -9.876448 -2.414719 -14.188951 106.261563 0.421646 -0.724544 18.025556 1.522475 13.550887 -0.000001 0.000002 0.000001 -0.000001 0.000002 0.000001 -0.000001 0.000000 -0.000000 1.200604 0.297191 0.036211 0.052092 0.122970 -0.079784 0.095956 0.114775 -0.080994 -0.228473 -0.005408 0.129676 0.329910 0.494719 0.033181 -0.000000 0.000000 -0.000000 -0.000000 0.000000 -0.000000 -0.000000 0.000000 -0.000000 0.608520 -3.276007 -22.034011 11.676382 -16.033980 -52.975408 -0.000000 -20.991232 -0.000002 -6.051230 11.322433 -4.940443 -8.139806 -14.751884 10.508553 11.522803 33.951381 -1.839727 -0.000000 0.000001 0.000002 -0.453768 -5.320381 -4.184388 0.332716 1.947942 -19.383529 -0.000000 0.000000 -0.000002 -0.401505 -0.921340 -7.463564 1.036271 3.328486 -34.578010 -0.000000 -0.000001 -0.000005 -0.149525 2.814367 -20.128154 0.105528 1.108090 -10.879726 0.000002 0.000001 -0.000000 -7.736870 8.986377 -14.639653 0.589058 2.562167 -25.891210 -0.000000 0.000000 0.000002 0.000002 -0.000001 0.000001 -0.112319 9.880030 22.058285 7.556009 7.063307 56.310648 -0.000003 19.520831 -0.000011 -3.871947 -5.621831 1.949124 -17.631780 6.226391 -1.472157 -4.122545 -35.426480 -9.858938 0.000001 0.000000 0.000000 13.897249 5.063019 9.896202 0.129263 -1.090754 13.516397 0.000003 0.000000 0.000002 -0.138561 -1.041052 7.042445 0.785983 -2.591026 33.745366 0.000002 -0.000000 -0.000002 0.562413 -5.309474 11.238684 0.534002 -2.167232 27.680977 0.000000 0.000001 0.000002 -12.305470 -16.660375 11.028095 0.315739 -1.687211 21.197726 0.000002 -0.000000 -0.000002 -0.000001 0.000001 -0.000000 0.000000 -0.000000 0.000000 0.000000 -0.000000 0.000000 0.000000 -0.000000 0.000000 0.000000 -0.000000 0.000000 0.000000 -0.000000 0.000000 0.000000 -0.000000 0.000000 0.000000 -0.000000 0.000000 0.000000 -0.000000 0.000000 0.000000 -0.000000 0.000000 0.000000 0.000000 -0.000000 0.000000 0.000000 -0.000000 0.000000 0.000000 0.000000 
0.089489 40.447105 -1.272137 0.304153 0.544283 0.516341 0.000000 -0.000000 -0.000000 -11.332250 -1.451494 14.856129 105.480333 8.295593 1.511079 24.924564 -1.478174 -18.904430 -0.000000 -0.000003 -0.000001 -0.000000 -0.000003 -0.000001 0.000001 -0.000001 -0.000000 -9.937782 -2.433536 -14.055496 106.269711 0.292579 -0.806384 18.057480 1.603957 13.521418 0.000002 0.000001 0.000000 0.000002 0.000001 0.000000 -0.000000 0.000001 -0.000000 1.163391 0.312962 0.043190 -0.003815 0.122969 -0.069357 0.082491 0.114775 -0.070304 -0.071076 -0.012586 0.139878 1.744316 0.480031 -0.128429 -0.000000 -0.000000 0.000000 -0.000000 -0.000000 0.000000 -0.000000 -0.000000 0.000000 0.612547 -3.237233 -22.011258 11.987008 -15.467819 -52.997572 0.000004 -21.987789 -0.000001 -5.382028 10.694933 -4.502711 -8.139806 -14.751880 10.508564 11.522798 33.951375 -1.839749 -0.000001 -0.000001 0.000002 -0.453768 -5.320380 -4.184388 0.332706 1.947944 -19.383554 0.000003 -0.000000 -0.000002 -0.401511 -0.921340 -7.463584 1.036279 3.328484 -34.578000 -0.000003 -0.000001 0.000002 -0.149524 2.814361 -20.128156 0.105517 1.108091 -10.879728 -0.000000 0.000001 -0.000000 -7.736881 8.986382 -14.639669 0.589052 2.562161 -25.891222 -0.000001 0.000001 -0.000000 -0.000003 -0.000002 0.000001 -0.109608 9.836587 22.070942 7.347443 6.953235 56.327914 0.000001 19.192796 -0.000006 -5.078326 -5.110206 2.168225 -17.553641 6.187627 -1.350061 -4.048855 -35.369383 -9.802749 0.000001 0.000001 0.000002 13.900037 5.031326 9.920342 0.129433 -1.091413 13.524811 -0.000004 0.000002 0.000002 -0.138981 -1.042686 7.061663 0.786360 -2.591587 33.753723 -0.000001 0.000001 -0.000000 0.563437 -5.310867 11.257999 0.534316 -2.167827 27.689310 0.000002 -0.000001 0.000005 -12.306909 -16.625903 11.059032 0.316053 -1.688022 21.208362 0.000000 -0.000001 -0.000000 0.000002 0.000000 -0.000000 -0.000000 -0.000000 0.000000 -0.000000 -0.000000 0.000000 -0.000000 -0.000000 0.000000 -0.000000 -0.000000 0.000000 -0.000000 -0.000000 -0.000000 -0.000000 -0.000000 -0.000000 -0.000000 -0.000000 0.000000 -0.000000 -0.000000 -0.000000 -0.000000 -0.000000 -0.000000 0.000000 -0.000000 -0.000000 0.000000 -0.000000 -0.000000 0.000000 -0.000000 -0.000000 
0.089097 40.447533 -1.278544 0.309119 0.465827 0.410003 -0.000000 -0.000000 0.000000 -11.298729 -1.477510 14.993614 105.504962 8.197023 1.430007 24.899458 -1.427202 -18.932629 -0.000001 0.000001 -0.000001 -0.000001 0.000001 -0.000001 0.000000 -0.000000 0.000000 -9.995751 -2.453076 -13.921497 106.276234 0.177977 -0.886830 18.088986 1.670706 13.497133 -0.000000 -0.000000 -0.000001 -0.000000 -0.000000 -0.000001 0.000001 -0.000001 0.000001 1.124150 0.327246 0.050433 -0.058467 0.122970 -0.059245 0.068642 0.114775 -0.059990 0.083013 -0.020141 0.149842 3.133420 0.460802 -0.287752 -0.000000 -0.000000 -0.000000 -0.000000 -0.000000 -0.000000 -0.000000 -0.000000 -0.000000 0.620313 -3.169125 -21.988826 12.328127 -14.761506 -53.058935 -0.000000 -23.142218 0.000001 -4.776239 10.167333 -4.082460 -8.139810 -14.751885 10.508529 11.522791 33.951378 -1.839733 -0.000000 -0.000000 0.000002 -0.453769 -5.320384 -4.184395 0.332704 1.947945 -19.383534 0.000000 -0.000001 -0.000002 -0.401510 -0.921343 -7.463590 1.036274 3.328482 -34.578010 0.000002 0.000001 0.000000 -0.149520 2.814362 -20.128156 0.105520 1.108094 -10.879722 0.000001 0.000001 0.000002 -7.736868 8.986375 -14.639665 0.589054 2.562166 -25.891220 -0.000000 0.000001 -0.000000 0.000001 0.000002 0.000000 -0.108020 9.779244 22.093357 7.155703 6.738898 56.317126 -0.000006 18.933009 0.000006 -6.140826 -4.611267 2.521085 -17.448352 6.132588 -1.164806 -3.936258 -35.319277 -9.728635 -0.000002 -0.000002 -0.000001 13.899340 4.991650 9.992873 0.130032 -1.093978 13.556995 -0.000001 -0.000000 -0.000000 -0.140430 -1.048369 7.128620 0.787810 -2.593751 33.785722 0.000000 -0.000001 -0.000000 0.566995 -5.315727 11.325258 0.535526 -2.170136 27.721373 -0.000001 -0.000001 0.000002 -12.302556 -16.587965 11.141758 0.317156 -1.690855 21.245746 -0.000000 -0.000001 0.000000 -0.000002 -0.000000 -0.000000 -0.000000 0.000000 -0.000000 -0.000000 0.000000 -0.000000 -0.000000 0.000000 -0.000000 -0.000000 0.000000 -0.000000 -0.000000 0.000000 -0.000000 -0.000000 0.000000 -0.000000 -0.000000 0.000000 -0.000000 -0.000000 0.000000 -0.000000 -0.000000 0.000000 -0.000000 -0.000000 0.000000 0.000000 -0.000000 0.000000 0.000000 -0.000000 -0.000000 0.000000 
0.088759 40.447914 -1.284631 0.313559 0.387818 0.303585 -0.000000 0.000000 0.000000 -11.267668 -1.489384 15.128280 105.526853 8.090846 1.365391 24.876025 -1.361677 -18.973311 -0.000001 -0.000002 0.000001 -0.000001 -0.000002 0.000002 -0.000000 0.000000 0.000000 -10.051678 -2.470904 -13.786799 106.282074 0.084460 -0.963571 18.120080 1.718781 13.477537 0.000000 -0.000000 0.000001 0.000000 -0.000000 0.000001 -0.000000 0.000002 0.000000 1.084093 0.340845 0.057867 -0.112616 0.122970 -0.049261 0.054640 0.117964 -0.049826 0.235782 -0.027848 0.159711 4.512338 0.440022 -0.446023 0.000000 -0.000000 0.000000 0.000000 -0.000000 0.000000 0.000000 -0.000000 0.000000 0.631747 -3.067925 -21.968223 12.694670 -13.897985 -53.165390 0.000001 -24.452526 0.000001 -4.211904 9.725576 -3.679028 -8.139812 -14.751880 10.508547 11.522806 33.951388 -1.839734 0.000001 0.000001 0.000002 -0.453779 -5.320370 -4.184398 0.332712 1.947943 -19.383553 -0.000001 0.000001 -0.000002 -0.401513 -0.921343 -7.463600 1.036268 3.328489 -34.578003 -0.000001 0.000001 0.000002 -0.149521 2.814362 -20.128163 0.105520 1.108093 -10.879725 -0.000001 -0.000000 -0.000000 -7.736872 8.986380 -14.639682 0.589052 2.562168 -25.891195 0.000002 0.000001 -0.000002 -0.000001 0.000002 -0.000000 -0.107063 9.704563 22.126622 6.969231 6.423782 56.272142 -0.000003 18.707388 0.000003 -7.070991 -4.108229 3.029985 -17.041138 5.892687 -0.671581 -3.772880 -35.227233 -9.621909 -0.000001 0.000001 0.000000 13.889867 4.875642 10.288495 0.134042 -1.110476 13.765404 -0.000001 0.000002 0.000002 -0.147231 -1.075469 7.447958 0.797239 -2.607776 33.993650 0.000002 -0.000001 -0.000002 0.585161 -5.340276 11.666615 0.543429 -2.185093 27.929291 -0.000002 0.000000 0.000002 -12.261056 -16.488510 11.542006 0.324508 -1.709636 21.493518 -0.000001 0.000000 0.000002 0.000003 -0.000001 -0.000000 -0.000000 -0.000000 0.000000 -0.000000 -0.000000 0.000000 -0.000000 -0.000000 0.000000 -0.000000 -0.000000 0.000000 -0.000000 -0.000000 0.000000 -0.000000 -0.000000 0.000000 -0.000000 -0.000000 0.000000 -0.000000 -0.000000 0.000000 -0.000000 -0.000000 0.000000 0.000000 0.000000 -0.000000 0.000000 0.000000 -0.000000 -0.000000 0.000000 0.000000 
